<?xml version="1.0" encoding="UTF-8" standalone="no"?>
<!-- Created with Inkscape (http://www.inkscape.org/) -->

<svg
   xmlns:dc="http://purl.org/dc/elements/1.1/"
   xmlns:cc="http://creativecommons.org/ns#"
   xmlns:rdf="http://www.w3.org/1999/02/22-rdf-syntax-ns#"
   xmlns:svg="http://www.w3.org/2000/svg"
   xmlns="http://www.w3.org/2000/svg"
   xmlns:sodipodi="http://sodipodi.sourceforge.net/DTD/sodipodi-0.dtd"
   xmlns:inkscape="http://www.inkscape.org/namespaces/inkscape"
   id="svg2"
   version="1.1"
   inkscape:version="0.48.4 r9939"
   width="931.45"
   height="286.3875"
   xml:space="preserve"
   sodipodi:docname="content.eps"><metadata
     id="metadata8"><rdf:RDF><cc:Work
         rdf:about=""><dc:format>image/svg+xml</dc:format><dc:type
           rdf:resource="http://purl.org/dc/dcmitype/StillImage" /><dc:title></dc:title></cc:Work></rdf:RDF></metadata><defs
     id="defs6"><clipPath
       clipPathUnits="userSpaceOnUse"
       id="clipPath100"><path
         d="m 7386.87,2229.27 0,-80.17 -120.91,0 -0.92,-134.07 -93.95,0 0.09,187.42 -301.75,0 -16.13,-15.93 -82.2,0 -4.31,-155.17 -36.96,0 0,-37.4 -71.9,0 0,-93.72 -35.96,0 0,93.72 -36.64,0 -69.68,0 0,-253.51 -122.88,0 0,154.38 -57.63,0 0,72.66 -13.47,0 0,-176.24 -166.71,0 0,-115.22 -18.71,-23.43 0,-94.94 -23.73,0 0,-30.83 -66.17,-125.77 -51.18,129.47 0,33.29 -12.48,0 0,87.55 -31.21,0 0,270.09 -13.07,0 0,-20.17 -13.15,-0.12 0,-448.32 -44.94,0 0,-38.22 -152.32,0 0,-28.37 -62.41,0 0,19.74 -47.44,0 0,35.75 -76.16,0 0,62.88 -19.97,0 0,-54.25 -16.23,0 0,-7.39 -96.14,0 0,70.28 -41.2,0 0,246.6 -36.2,0 0,69.76 -22.58,0 0,-138 -85.38,0 0,333.37 -12.45,1.42 0,-639.66 -89.38,0 0,-204.76 -12.01,0 0,17.81 -14.42,0 0,-15.42 -10.81,0 0,15.42 -22.83,0 0,-116.27 -32.43,0 0,-43.89 -20.42,0 0,-58.136 -12.02,-11.863 0,-121.008 -10.81,0 0,-24.922 -38.43,-32.031 -25.23,34.414 0,30.84 -18.01,0 0,126.933 -7.21,7.129 0,54.574 -14.42,0 0,43.89 -38.43,0 0,-16.61 -51.66,0 0,454.02 -22.35,0 -23.08,-38.01 -148.81,0 0,43.07 -61.58,0 0,114.12 -15.39,0 0,-121.72 0,-93.76 -97.49,-32.94 -17.96,0 0,-167.24 -23.1,-98.83 -164.2,0 0,-222.986 -10.26,10.137 0,190.049 -56.45,0 0,35.48 -151.36,0 0,114.46 -3.57,0 0,-47.35 -68.41,0 0,-268.342 0,-185.438 -31.46,0 0,-76.945 -7.49,-7.402 0,-38.465 -28.46,0 0,-45.871 -26.97,0 0,-35.508 -17.98,0 0,-29.59 -10.48,-19.238 0,-167.196 -24.72,-24.414 L 3778.5,42.0508 3778.5,0 3778.26,21.0273 3778,0 l 0,42.0508 -3.24,270.8902 -24.72,24.414 0,167.196 -10.49,19.238 0,29.59 -17.97,0 0,35.508 -26.97,0 0,45.871 -28.47,0 0,38.465 -7.49,7.402 0,76.945 -31.45,0 0,185.438 0,786.582 -8.85,-4.36 -23.97,0 0,-619.8 -201.24,0 0,-451.836 -5.23,-19.227 0,-58.449 -29.97,-108.008 -12.73,0 -2.25,-5.926 -86.89,0 -142.32,83.602 0,437.227 -29.22,0 -30.71,-8.875 -89.14,0 -2.24,9.617 -17.23,0 0,82.125 5.99,0 2.25,13.3 -9.74,2.97 -6.6,664.47 -19.65,0 0,154 -19.9,0 0,91.75 -1.33,0 0,-762.94 -14.26,-11.27 0,-103.33 -12.37,-21.6 0,-137.132 -14.26,-18.789 -54.21,0 0,-88.3 -7.61,-19.727 -93.2,0 0,-11.269 -10.46,0 0,-27.235 -14.27,0 0,-48.848 -5.23,0 0,47.442 -2.38,2.351 0,29.102 -24.72,0 0,8.457 -18.07,0 0,15.031 -43.75,0 -23.78,18.789 0,74.207 -47.55,0 -19.02,18.789 c 0,0 -0.95,145.582 0,148.412 0.95,2.81 -13.32,8.44 -13.32,8.44 l 0,116.48 -13.31,13.15 3,273.6 -45.59,0 0,-186.44 -28.97,-10.85 -2,-11.83 -96.88,-37.49 0,-26.64 -35.95,-8.87 -23.97,10.85 0,25.64 -26.97,0 -104.86,56.23 0,322.56 -28.97,-18.75 -59.92,0 -61.92,-31.56 0,-285.07 -12.99,0.99 -108.86,-135.14 -31.96,0 0,-161.78 -8.99,157.83 -17.98,0 -41.95,0 -65.92,134.16 0,470.68 -50.12,0 0,59.34 -16.69,-1.64 0,18.12 -45.06,3.3 0,295.07 -51.01,0 0,-91.23 19.56,0 0,-177.18 -58.7,0 0,-32.22 -39.15,0 -13.04,-12.88 -129.38,-18.26 0,16.12 -23.92,2.14 0,46.18 -11.96,0 0,-69.8 -25,-6.45 -77.2,0 0,91.27 -54.36,0 0,209.4 -20.65,0 0,-22.56 -34.8,0 0,22.56 -35.779,7.75 -0.129,-168.21 -64.723,0 0,-427.75 -57.836,0 0,-25.15 -29.605,0 0,23.8 -8.266,0 0,-22.44 -30.289,0 0,21.76 -27.539,0 0,446.05 -9.18,0 0,-542.16 -73.441,0 -3.672,-27.2 -86.301,-7.25 -67.933,9.06 -1.836,18.14 -84.465,12.69 0,407.25 -71.707,0 0,54.01 -104.586,0 0,337.14 -160.238,0 0,-164.67 -25.9027,0 0,25.59 -72.9218,0 0,139.08 -14.9805,0 0,42.29 7451.57,0 0,-42.29 -64.7,0"
         id="path102" /></clipPath></defs><sodipodi:namedview
     pagecolor="#ffffff"
     bordercolor="#666666"
     borderopacity="1"
     objecttolerance="10"
     gridtolerance="10"
     guidetolerance="10"
     inkscape:pageopacity="0"
     inkscape:pageshadow="2"
     inkscape:window-width="1366"
     inkscape:window-height="716"
     id="namedview4"
     showgrid="false"
     inkscape:zoom="0.7193086"
     inkscape:cx="465.72501"
     inkscape:cy="287.19376"
     inkscape:window-x="0"
     inkscape:window-y="0"
     inkscape:window-maximized="1"
     inkscape:current-layer="g12" /><g
     id="g10"
     inkscape:groupmode="layer"
     inkscape:label="ink_ext_XXXXXX"
     transform="matrix(1.25,0,0,-1.25,0,574.3875)"><g
       id="g12"
       transform="scale(0.1,0.1)"><path
         d="m 6729.83,2576.21 -71.9,0 0,94.89 -35.96,0 0,-94.89 -106.32,0 0,256.68 -122.88,0 0,-453.38 122.88,0 0,3.96 214.18,0 0,192.74"
         style="fill:#498fd1;fill-opacity:1;fill-rule:nonzero;stroke:none"
         id="path14" /><path
         d="m 5224.29,2432.91 85.3867,0 0,449.414 -85.3867,0 0,-449.414 z"
         style="fill:#498fd1;fill-opacity:1;fill-rule:nonzero;stroke:none"
         id="path16" /><path
         d="m 3351.66,2316.18 242.719,0 0,1159.66 -242.719,0 0,-1159.66 z"
         style="fill:#498fd1;fill-opacity:1;fill-rule:nonzero;stroke:none"
         id="path18" /><path
         d="m 3670.31,2336.49 0,191.82 189.86,0 24.38,-24.37 23.08,23.09 38.49,-38.48 39.76,0 0,814.59 15.41,0 0,133.41 151.36,0 0,35.92 56.45,0 0,192.42 10.26,10.27 0,-225.78 164.2,0 23.1,-100.06 0,-169.33 17.96,0 97.49,-33.35 0,-505.44 15.39,0 0,402.81 61.58,0 0,43.61 148.81,0 23.08,-38.48 84.67,0 0,-559.32 46.18,0 0,-153.33 -1231.51,0"
         style="fill:#498fd1;fill-opacity:1;fill-rule:nonzero;stroke:none"
         id="path20" /><path
         d="m 5286.06,2386.27 0,73.65 46.19,0 0,353.31 36.2,0 0,249.68 41.2,0 0,71.16 96.14,0 0,-7.49 16.23,0 0,-54.92 19.97,0 0,63.67 76.16,0 0,36.19 47.44,0 0,19.98 62.41,0 0,-28.71 152.32,0 0,-38.7 44.94,0 0,-578.03 26.22,0 0,377.03 31.21,0 0,88.64 12.48,0 0,33.7 51.18,131.09 66.17,-127.34 0,-31.21 23.73,0 0,-96.13 18.71,-23.72 0,-540.57 -868.9,28.72"
         style="fill:#498fd1;fill-opacity:1;fill-rule:nonzero;stroke:none"
         id="path22" /><path
         d="m 450.336,2325.61 0,820.72 84.465,12.85 1.836,18.36 67.933,9.19 86.301,-7.35 3.672,-27.54 73.441,0 0,-712.4 9.18,9.18 0,605.91 27.539,0 0,22.03 30.289,0 0,-22.72 8.266,0 0,24.1 29.605,0 0,-25.48 57.836,0 0,-433.08 64.723,0 0.226,-299.29 -545.312,5.52"
         style="fill:#498fd1;fill-opacity:1;fill-rule:nonzero;stroke:none"
         id="path24" /><path
         d="m 2933.22,2429.96 10.49,1069.66 9.74,2.99 -2.25,13.49 -5.99,0 0,83.15 17.23,0 2.24,9.73 89.14,0 30.71,-8.99 29.22,0 0,442.7 142.32,84.65 86.89,0 2.25,-6 12.73,0 29.97,-109.36 0,-59.18 5.23,-19.47 0,-1545.32 -459.92,41.95"
         style="fill:#498fd1;fill-opacity:1;fill-rule:nonzero;stroke:none"
         id="path26" /><path
         d="m 1662.81,2550.8 0,718.11 65.92,135.83 59.93,0 8.99,159.8 0,-163.8 31.96,0 108.86,-136.83 12.99,1 0,-288.64 61.92,-31.96 59.92,0 28.97,-18.98 0,326.6 104.86,56.93 26.97,0 0,25.96 23.97,10.99 35.95,-8.99 0,-26.96 96.88,-37.96 2,-11.98 28.97,-10.99 0,-813.98 -775.03,0 15.97,115.85"
         style="fill:#498fd1;fill-opacity:1;fill-rule:nonzero;stroke:none"
         id="path28" /><path
         d="m 2473.97,2458.41 -9.51,878.77 13.31,13.32 0,117.92 c 0,0 14.27,5.71 13.32,8.56 -0.95,2.86 0,150.27 0,150.27 l 19.02,19.02 47.55,0 0,75.14 23.78,19.02 43.75,0 0,15.21 18.07,0 0,8.57 24.72,0 0,29.47 2.38,2.39 0,48.02 5.23,0 0,-49.46 14.27,0 0,-27.58 10.46,0 0,-11.41 93.2,0 7.61,-19.96 0,-89.41 54.21,0 14.26,-19.02 0,-138.85 12.37,-21.88 0,-104.61 14.26,-11.41 0,-912.05 -422.26,19.96"
         style="fill:#498fd1;fill-opacity:1;fill-rule:nonzero;stroke:none"
         id="path30" /><path
         d="m 4793.32,2374.88 0,1133.95 51.66,0 0,-16.82 38.43,0 0,44.45 14.42,0 0,55.25 7.21,7.22 0,128.52 18.01,0 0,31.23 25.23,34.84 38.43,-32.43 0,-25.23 10.81,0 0,-122.53 12.02,-12.01 0,-58.86 20.42,0 0,-44.44 32.43,0 0,-117.72 22.83,0 0,15.61 10.81,0 0,-15.61 14.42,0 0,18.02 12.01,0 0,-1051.07 -329.14,27.63"
         style="fill:#498fd1;fill-opacity:1;fill-rule:nonzero;stroke:none"
         id="path32" /><path
         d="m 3967.26,2725.43 -37.95,0 0,1102.63 -31.46,0 0,77.9 -7.49,7.49 0,38.95 -28.46,0 0,46.44 -26.97,0 0,35.96 -17.98,0 0,29.96 -10.48,19.48 0,169.29 -24.72,24.71 -3.25,274.28 0,42.58 -0.24,-21.29 -0.26,21.29 0,-42.58 -3.24,-274.28 -24.72,-24.71 0,-169.29 -10.49,-19.48 0,-29.96 -17.97,0 0,-35.96 -26.97,0 0,-46.44 -28.47,0 0,-38.95 -7.49,-7.49 0,-77.9 -31.45,0 0,-1102.63 -37.96,0 0,-307.61 188.76,-17.43 0,-0.04 0.26,0.02 0.24,-0.02 0,0.04 188.76,17.43 0,307.61"
         style="fill:#498fd1;fill-opacity:1;fill-rule:nonzero;stroke:none"
         id="path34" /><path
         d="m 5193.57,2338.01 4.5,203.74 77.9,8.99 112.36,0 0,-103.36 11.99,11.98 0,97.38 61.41,0 0,16.47 76.41,0 0,-20.97 62.92,0 0,-95.88 130.34,0 0,49.44 59.92,0 0,-37.46 50.94,0 0,71.92 38.95,26.96 34.46,0 0,-80.9 20.97,0 0,163.3 65.92,0 0,53.93 115.36,0 0,-175.28 8.98,8.99 0,244.2 194.77,0 0,-185.77 13.47,0 0,80.9 73.41,0 0,20.97 55.43,0 28.47,-28.46 0,-92.89 92.88,0 0,-34.46 55.43,0 -4.49,-190.25 -1442.7,-13.49"
         style="fill:#296aa6;fill-opacity:1;fill-rule:nonzero;stroke:none"
         id="path36" /><path
         d="m 2873.1,2357.3 0,480.31 -72.21,18.21 -157.73,0 0,-407.46 -47.51,0 0,611.8 -199.54,0 0,-716.52 476.99,13.66"
         style="fill:#296aa6;fill-opacity:1;fill-rule:nonzero;stroke:none"
         id="path38" /><path
         d="m 5045.58,2348.06 0,842.95 166.26,0 0,-840.03 -166.26,-2.92"
         style="fill:#296aa6;fill-opacity:1;fill-rule:nonzero;stroke:none"
         id="path40" /><path
         d="m 4494.63,2309.75 0,618.72 204.5,0 0,-397.01 42.7,0 21.72,-53.92 0,-157.31 -268.92,-10.48"
         style="fill:#296aa6;fill-opacity:1;fill-rule:nonzero;stroke:none"
         id="path42" /><path
         d="m 1455.8,2311.66 0,101.81 95.14,0 0,298.75 45.06,3.34 0,18.36 16.69,-1.67 0,60.08 113.5,0 0,-50.07 53.4,-1.67 0,-48.4 113.5,0 0,-158.55 111.82,0 0,43.39 28.37,0 81.78,-48.4 0,-21.7 303.76,0 0,-170.24 -963.02,-25.03"
         style="fill:#296aa6;fill-opacity:1;fill-rule:nonzero;stroke:none"
         id="path44" /><path
         d="m 3220.17,2349.32 0,788.91 43.54,3.73 0,23.65 62.23,0 0,36.08 68.43,7.47 18.67,-36.08 0,-28.63 37.33,0 0,-383.25 37.33,0 0,87.1 130.65,0 57.24,-28.62 0,-484.04 -449.2,0 -6.22,13.68"
         style="fill:#296aa6;fill-opacity:1;fill-rule:nonzero;stroke:none"
         id="path46" /><path
         d="m 948.707,2303.61 0,117.43 38.051,5.44 0,20.65 44.572,9.78 0,22.84 34.8,0 0,-22.84 20.65,0 0,212.01 54.36,0 0,92.41 77.2,0 25,-6.52 0,-70.67 11.96,0 0,46.75 23.92,2.18 0,16.31 129.38,-18.49 13.04,-13.05 39.15,0 0,-32.61 58.7,0 0,-179.39 -19.56,0 0,-189.18 -551.223,-13.05"
         style="fill:#296aa6;fill-opacity:1;fill-rule:nonzero;stroke:none"
         id="path48" /><path
         d="m 3750.54,2394.82 0,269.66 9.73,9.73 0,640.45 17.23,0 0,37.46 82.4,16.48 137.82,0 0,-47.94 13.49,0 0,-641.2 13.49,0 0,-335.58 -274.16,-5.99 0,56.93"
         style="fill:#296aa6;fill-opacity:1;fill-rule:nonzero;stroke:none"
         id="path50" /><path
         d="m 2250.08,2378.02 0,577.28 113.86,0 0,-575.28 -113.86,-2"
         style="fill:#296aa6;fill-opacity:1;fill-rule:nonzero;stroke:none"
         id="path52" /><path
         d="m 2872.68,2329.2 0,248.81 24.88,0 0,92.9 19.9,0 0,155.93 29.86,0 0,270.38 64.7,64.7 68.01,0 68.85,-68.84 0,-319.33 17.41,0 0,-451.19 -293.61,6.64"
         style="fill:#296aa6;fill-opacity:1;fill-rule:nonzero;stroke:none"
         id="path54" /><path
         d="m 4842.29,2352.02 179.762,0 0,435.93 -179.762,0 0,-435.93 z"
         style="fill:#296aa6;fill-opacity:1;fill-rule:nonzero;stroke:none"
         id="path56" /><path
         d="m 4033.34,2329.55 507.832,0 0,179.766 -507.832,0 0,-179.766 z"
         style="fill:#296aa6;fill-opacity:1;fill-rule:nonzero;stroke:none"
         id="path58" /><path
         d="m 0,2295.13 7451.57,0 0,42.8203 -7451.57,0 0,-42.8203 z"
         style="fill:#1a4268;fill-opacity:1;fill-rule:nonzero;stroke:none"
         id="path60" /><path
         d="m 4771.56,2530.1 -35.66,0 -4.19,112.05 c 0,0 -0.01,21.75 -14.68,35.13 -14.67,13.38 -27.25,13.38 -27.25,13.38 l -6.03,55.04 0,0.15 -0.13,-0.08 -0.14,0.08 0,-0.15 -6.02,-55.04 c 0,0 -12.58,0 -27.25,-13.38 -14.67,-13.38 -14.69,-35.13 -14.69,-35.13 l -4.19,-112.05 -35.65,0 0,-215.74 87.8,-5 0,-0.02 0.14,0.01 0.13,-0.01 0,0.02 87.81,5 0,215.74"
         style="fill:#1a4268;fill-opacity:1;fill-rule:nonzero;stroke:none"
         id="path62" /><path
         d="m 1469.06,2310.11 1.99,62.43 91.89,-1.15 3,200.46 65.91,0.86 -0.99,78.97 152.8,0 0,-86.31 172.79,0 0,-218.53 20.97,0 0,-24.79 -508.36,-11.94"
         style="fill:#1a4268;fill-opacity:1;fill-rule:nonzero;stroke:none"
         id="path64" /><path
         d="m 14.9805,2324.14 0,154.63 72.9218,0 0,25.91 25.9027,0 0,-171.89 160.238,0 0,346.51 104.586,0 0,54.7 80.594,0 0,-64.29 62.371,0 0,-329.26 66.199,0 0,164.58 15.355,0 0,38.38 45.094,0 0,-52.77 6.719,0 0,112.26 38.379,0 0,21.11 47.015,0 0,-21.11 135.29,0 0,-282.59 -860.6645,0 0,3.83"
         style="fill:#1a4268;fill-opacity:1;fill-rule:nonzero;stroke:none"
         id="path66" /><path
         d="m 5448.69,2330.68 0,20.71 53.59,0 0,26.81 34.12,0 0,28.01 0.95,108.82 161.07,0 6.1,-97.85 14,14.01 89.54,0 1.9,239.97 128.45,-1.12 0,-243.11 115.73,0 0,125.02 36.54,0 0,-18.28 179.51,0 -0.43,69.34 103.56,0 0,-232.13 130.34,0 0,14.62 -0.01,149.8 110.87,0 0,32.28 24.36,0 0,-29.24 127.91,0 4.31,-157.1 82.2,0 16.13,-16.14 301.75,0 -0.09,189.76 93.95,0 0.92,-135.74 120.91,0 0,-86 38.99,0 0,-20.71 -1977.17,18.27"
         style="fill:#1a4268;fill-opacity:1;fill-rule:nonzero;stroke:none"
         id="path68" /><path
         d="m 2946.21,2310.82 0,454.39 171.05,-1.08 0,-280.02 34.93,0 0,179.81 131.3,0 0,-35.21 31.32,0 0,-222.92 50.59,0 0,485.78 62.64,0 0,97.92 6.02,0 0,-96.9 46.98,0 0,-579.84 -534.83,-1.93"
         style="fill:#1a4268;fill-opacity:1;fill-rule:nonzero;stroke:none"
         id="path70" /><path
         d="m 4181.5,2305.77 0,106.55 121.42,0 0,47.07 91.67,0 0,-39.64 34.7,0 0,-57 29.73,0 0,-39.64 188.31,0 0,131.33 169.37,0 0,179.95 183.46,0 0,-182.43 238.53,0 1.49,290.63 106.37,0 0,-290.63 123.43,0 0,-118.94 -1288.48,-27.25"
         style="fill:#1a4268;fill-opacity:1;fill-rule:nonzero;stroke:none"
         id="path72" /><path
         d="m 3889.66,2316.63 0,469.74 56.14,1.58 122.62,0 0,-263.16 36.94,0 0,119.97 155.12,0 0,-336.05 -370.82,7.92"
         style="fill:#1a4268;fill-opacity:1;fill-rule:nonzero;stroke:none"
         id="path74" /><path
         d="m 4508.75,2652.75 -15.91,11.36 0,165.89 -13.64,20.45 -3.4,86.36 -30.69,0 0,84.08 -19.31,14.77 0,34.09 -13.64,12.5 -21.44,133.16 0,0.91 -0.07,-0.44 -0.08,0.44 0,-0.91 -21.44,-133.16 -13.63,-12.5 0,-34.09 -19.32,-14.77 0,-84.08 -30.68,0 -3.41,-86.36 -13.63,-20.45 0,-165.89 -15.92,-11.36 1.14,-327.25 116.89,-3.4 0,-0.01 0.15,0 0,0.01 116.88,3.4 1.15,327.25"
         style="fill:#1a4268;fill-opacity:1;fill-rule:nonzero;stroke:none"
         id="path76" /><path
         d="m 3886.03,2312.98 0,594.07 -109.99,-0.36 0,48.15 -90.58,-0.58 0,-42.53 -38.82,0 0,-288.6 -38.81,0 -1.15,-320.45 272.89,0 6.46,10.3"
         style="fill:#1a4268;fill-opacity:1;fill-rule:nonzero;stroke:none"
         id="path78" /><path
         d="m 2953.47,2310.11 1.91,73.44 -116.42,90.99 -1.36,251.04 -122.1,-0.23 0,-303.26 -10.58,0 0,465.46 -152.86,0 -7.06,-388.4 -90.53,0 -51.74,0.42 0,-155.61 -16.46,0 0,273.25 -27.05,0 -30.57,-19.26 0,-266.84 -22,0 0,187.68 -65.01,0 0,-196.24 -147.24,0 -100.63,2.14 -21.39,-8.56 -11.78,-6.02 992.87,0"
         style="fill:#1a4268;fill-opacity:1;fill-rule:nonzero;stroke:none"
         id="path80" /><path
         d="m 816.223,2309.1 287.641,0 0,98.8789 -287.641,0 0,-98.8789 z"
         style="fill:#1a4268;fill-opacity:1;fill-rule:nonzero;stroke:none"
         id="path82" /><path
         d="m 1064.91,2311.66 390.898,0 0,51.375 -390.898,0 0,-51.375 z"
         style="fill:#1a4268;fill-opacity:1;fill-rule:nonzero;stroke:none"
         id="path84" /><path
         d="m 1307.61,2330.07 119.848,0 0,173.785 -119.848,0 0,-173.785 z"
         style="fill:#1a4268;fill-opacity:1;fill-rule:nonzero;stroke:none"
         id="path86" /><path
         d="m 1208.73,2354.04 86.8906,0 0,62.9258 -86.8906,0 0,-62.9258 z"
         style="fill:#1a4268;fill-opacity:1;fill-rule:nonzero;stroke:none"
         id="path88" /><path
         d="m 1885.88,2315.09 290.637,0 0,113.855 -290.637,0 0,-113.855 z"
         style="fill:#1a4268;fill-opacity:1;fill-rule:nonzero;stroke:none"
         id="path90" /><path
         d="m 2047.68,2375.02 65.918,0 0,380.523 -65.918,0 0,-380.523 z"
         style="fill:#1a4268;fill-opacity:1;fill-rule:nonzero;stroke:none"
         id="path92" /><path
         d="m 3413.97,2318.09 230.711,0 0,140.82 -230.711,0 0,-140.82 z"
         style="fill:#1a4268;fill-opacity:1;fill-rule:nonzero;stroke:none"
         id="path94" /></g></g></svg>