<svg width="1600" height="1200" xmlns="http://www.w3.org/2000/svg">

 <g>
  <title>Layer 1</title>
  <g id="layer1">
   <rect fill="#559dcc" fill-rule="nonzero" stroke-miterlimit="4" stroke-dashoffset="0" id="rect8727" y="0" x="0" height="1200" width="1600"/>
   <path fill="#ffffff" fill-rule="nonzero" stroke-miterlimit="4" stroke-dashoffset="0" id="path8765" d="m730.18256,77.95242c-27.92017,0 -51.05554,20.62776 -54.99054,47.4618c-0.98438,-0.0837 -1.97522,-0.14162 -2.98022,-0.14162c-19.21002,0 -34.85468,16.30772 -35.28284,36.5621c-3.20935,-1.78981 -6.89648,-2.8199 -10.83148,-2.8199c-12.29681,0 -22.28748,9.99197 -22.28748,22.28877c0,12.29678 12.58142,25.77824 24.87817,25.77824c104.2171,0.33472 173.46057,1.37769 277.31622,0.70174c13.9823,0 26.77161,-6.63129 26.77161,-20.61487c0,-13.98358 -11.34979,-25.33398 -25.33209,-25.33398c-3.64587,0 -7.10571,0.77254 -10.23853,2.16319c-5.67645,-9.39963 -15.97876,-15.68324 -27.75214,-15.68324c-4.63544,0 -9.05328,0.97861 -13.04236,2.73621c-2.22205,-14.26691 -14.5639,-25.20526 -29.45013,-25.20526c-11.75177,0 -21.91901,6.81151 -26.77429,16.70044c-4.34167,-2.57524 -9.30334,-4.22336 -14.59686,-4.66763c0.11151,-1.43568 0.17627,-2.87137 0.17627,-4.33928c0,-30.67758 -24.9046,-55.58671 -55.58331,-55.58671z"/>
   <path fill="#ffffff" fill-rule="nonzero" stroke-miterlimit="4" stroke-dashoffset="0" id="path8729" d="m112.836,460.83301c-22.55798,0 -41.25201,16.66602 -44.43097,38.34601c-0.79504,-0.07098 -1.59503,-0.11603 -2.40802,-0.11603c-15.521,0 -28.16101,13.17902 -28.50702,29.54303c-2.59296,-1.44904 -5.573,-2.27899 -8.75195,-2.27899c-9.935,0 -18.00806,8.073 -18.00806,18.008c0,9.93597 10.16602,20.82898 20.10101,20.82898c84.20502,0.271 140.15204,1.112 224.065,0.56403c11.29803,0 21.63104,-5.35699 21.63104,-16.65503c0,-11.297 -9.17004,-20.46698 -20.46802,-20.46698c-2.94501,0 -5.74103,0.62598 -8.27203,1.74701c-4.58698,-7.59399 -12.90997,-12.67401 -22.42297,-12.67401c-3.74603,0 -7.315,0.79498 -10.53802,2.21399c-1.79596,-11.52698 -11.76801,-20.36401 -23.79498,-20.36401c-9.495,0 -17.71002,5.50104 -21.633,13.48901c-3.508,-2.07599 -7.51703,-3.40802 -11.79401,-3.76697c0.09003,-1.16101 0.14203,-2.32404 0.14203,-3.50806c0,-24.78796 -20.12201,-44.90997 -44.91003,-44.90997z"/>
   <path fill="#ffffff" fill-rule="nonzero" stroke-miterlimit="4" stroke-dashoffset="0" id="path8731" d="m355.86725,687.66296c-22.94775,0 -41.96365,16.95361 -45.19745,39.00739c-0.8092,-0.07184 -1.62332,-0.11847 -2.44974,-0.11847c-15.78888,0 -28.64725,13.40668 -28.99905,30.05261c-2.63763,-1.47351 -5.66818,-2.31775 -8.90259,-2.31775c-10.10657,0 -18.31842,8.21185 -18.31842,18.31909c0,10.10657 10.34109,21.18811 20.44769,21.18811c85.65747,0.27563 142.56949,1.13092 227.92984,0.57404c11.49228,0 22.00351,-5.4502 22.00351,-16.9425c0,-11.49231 -9.32867,-20.82098 -20.82101,-20.82098c-2.99619,0 -5.84009,0.63672 -8.41507,1.77808c-4.66495,-7.72498 -13.13284,-12.89276 -22.80963,-12.89276c-3.80969,0 -7.4407,0.80859 -10.7193,2.25201c-1.82657,-11.72559 -11.97058,-20.71533 -24.20581,-20.71533c-9.659,0 -18.01514,5.5957 -22.00592,13.72223c-3.56839,-2.11206 -7.64639,-3.4671 -11.99759,-3.8324c0.09207,-1.18066 0.14487,-2.36438 0.14487,-3.56903c0,-25.21515 -20.46918,-45.68433 -45.68433,-45.68433z"/>
   <path fill="#ffffff" fill-rule="nonzero" stroke-miterlimit="4" stroke-dashoffset="0" id="path8733" d="m127.67229,805.06354c-23.14546,0 -42.32487,17.09912 -45.58633,39.34351c-0.81625,-0.07281 -1.6373,-0.11945 -2.47087,-0.11945c-15.92513,0 -28.89393,13.52179 -29.24861,30.31152c-2.66076,-1.48627 -5.7174,-2.33771 -8.97946,-2.33771c-10.19339,0 -18.47601,8.28198 -18.47601,18.47595c0,10.19403 10.42985,21.36908 20.62384,21.36908c86.39455,0.28064 143.79667,1.1405 229.89207,0.57922c11.59125,0 22.19308,-5.4953 22.19308,-17.08655c0,-11.59125 -9.40881,-21 -21.00006,-21c-3.02197,0 -5.89053,0.64191 -8.4874,1.79315c-4.7059,-7.79181 -13.24588,-13.00409 -23.00574,-13.00409c-3.84308,0 -7.5058,0.81567 -10.81262,2.27148c-1.84213,-11.82654 -12.07312,-20.89374 -24.41376,-20.89374c-9.74197,0 -18.17029,5.64392 -22.19545,13.84058c-3.59944,-2.13055 -7.71239,-3.49731 -12.1006,-3.86511c0.09256,-1.19128 0.14629,-2.3855 0.14629,-3.60004c0,-25.43243 -20.64592,-46.07782 -46.07837,-46.07782z"/>
   <path fill="#ffffff" fill-rule="nonzero" stroke-miterlimit="4" stroke-dashoffset="0" id="path8735" d="m223.42401,1009.07404c-33.19299,0 -60.698,24.52301 -65.37601,56.42303c-1.16998,-0.104 -2.34799,-0.17102 -3.543,-0.17102c-22.83801,0 -41.43701,19.39197 -41.94598,43.46997c-3.81604,-2.13098 -8.19904,-3.35303 -12.87701,-3.35303c-14.61902,0 -26.49799,11.87805 -26.49799,26.49805c0,14.6189 14.95801,30.64795 29.578,30.64795c123.89899,0.39795 206.21997,1.63501 329.69098,0.82996c16.62299,0 31.82703,-7.88293 31.82703,-24.50696c0,-16.62292 -13.49304,-30.11597 -30.11603,-30.11597c-4.33398,0 -8.448,0.92102 -12.17297,2.57202c-6.74799,-11.17505 -18.995,-18.65002 -32.992,-18.65002c-5.51202,0 -10.76398,1.16992 -15.50598,3.25806c-2.64203,-16.96106 -17.315,-29.96411 -35.013,-29.96411c-13.97101,0 -26.05804,8.09399 -31.83099,19.84912c-5.16101,-3.05603 -11.06006,-5.01611 -17.35303,-5.54309c0.13196,-1.70801 0.20898,-3.42102 0.20898,-5.16296c0,-36.47302 -29.608,-66.08099 -66.08099,-66.08099z"/>
   <path fill="#ffffff" fill-rule="nonzero" stroke-miterlimit="4" stroke-dashoffset="0" id="path8743" d="m211.61798,1635.66101c-35.49194,0 -64.90295,26.22205 -69.90594,60.33301c-1.25104,-0.11108 -2.51001,-0.18298 -3.78802,-0.18298c-24.42102,0 -44.30798,20.73499 -44.85199,46.48096c-4.08002,-2.27905 -8.76703,-3.58496 -13.77002,-3.58496c-15.63202,0 -28.33301,12.70093 -28.33301,28.33301c0,15.63196 15.995,32.77197 31.62701,32.77197c132.48297,0.42603 220.508,1.74902 352.53299,0.88696c17.77502,0 34.03302,-8.42896 34.03302,-26.20398c0,-17.77502 -14.42902,-32.203 -32.20401,-32.203c-4.634,0 -9.03299,0.98499 -13.01498,2.75c-7.216,-11.948 -20.31201,-19.94092 -35.27902,-19.94092c-5.89301,0 -11.509,1.25098 -16.57999,3.48291c-2.82498,-18.13599 -18.51401,-32.03992 -37.43802,-32.03992c-14.93896,0 -27.86401,8.65491 -34.03601,21.224c-5.51996,-3.26709 -11.82697,-5.36304 -18.55597,-5.927c0.14099,-1.82605 0.224,-3.65808 0.224,-5.52002c0,-39 -31.66003,-70.66003 -70.66003,-70.66003z"/>
   <path fill="#ffffff" fill-rule="nonzero" stroke-miterlimit="4" stroke-dashoffset="0" id="path8745" d="m234.93604,1859.96802c-38.979,0 -71.28003,28.797 -76.77301,66.25903c-1.37402,-0.12207 -2.75702,-0.20105 -4.16101,-0.20105c-26.81903,0 -48.66101,22.77307 -49.258,51.0481c-4.48102,-2.50317 -9.62903,-3.93713 -15.12201,-3.93713c-17.16803,0 -31.117,13.9491 -31.117,31.11597c0,17.16809 17.56598,35.99109 34.73303,35.99109c145.49896,0.46899 242.17096,1.92102 387.16599,0.97498c19.521,0 37.37595,-9.25696 37.37595,-28.77795c0,-19.52112 -15.84497,-35.36694 -35.36597,-35.36694c-5.09,0 -9.92099,1.08191 -14.29498,3.0199c-7.92401,-13.12207 -22.30701,-21.90002 -38.74402,-21.90002c-6.47198,0 -12.63998,1.37402 -18.20898,3.82507c-3.103,-19.91699 -20.33301,-35.18799 -41.11603,-35.18799c-16.40698,0 -30.60199,9.50598 -37.38,23.30994c-6.06195,-3.58801 -12.98895,-5.89001 -20.37897,-6.51001c0.15601,-2.00598 0.24597,-4.01697 0.24597,-6.06201c0,-42.83093 -34.76996,-77.60095 -77.60095,-77.60095z"/>
   <path fill="#ffffff" fill-rule="nonzero" stroke-miterlimit="4" stroke-dashoffset="0" id="path8747" d="m465.60098,250.19995c37.08331,0 67.81277,28.63831 73.03958,65.89243c1.30707,-0.12173 2.62268,-0.20282 3.9577,-0.20282c25.51514,0 46.29413,22.64279 46.86304,50.76187c4.26276,-2.4906 9.16046,-3.91034 14.38641,-3.91034c16.33307,0 29.60327,13.86478 29.60327,30.94232c0,17.06931 -16.71173,35.78558 -33.04407,35.78558c-138.42294,0.47058 -230.39258,1.91467 -368.33582,0.97357c-18.57152,0 -35.55811,-9.20804 -35.55811,-28.62207c0,-19.41394 15.07486,-35.16907 33.64638,-35.16907c4.84181,0 9.43831,1.07907 13.59935,3.0018c7.53899,-13.04547 21.2222,-21.77487 36.85974,-21.77487c6.15738,0 12.02527,1.36298 17.32343,3.80496c2.95181,-19.80344 19.3446,-34.9906 39.11609,-34.9906c15.60965,0 29.11353,9.45145 35.56201,23.17828c5.76697,-3.56967 12.35745,-5.85745 19.38803,-6.47403c-0.14825,-1.99573 -0.23364,-3.99155 -0.23364,-6.02777c0,-42.59232 33.07825,-77.16925 73.8266,-77.16925z"/>
   <path fill="#ffffff" fill-rule="nonzero" stroke-miterlimit="4" stroke-dashoffset="0" id="path8749" d="m645.16748,490.71463c27.36755,0 50.04578,20.2186 53.90295,46.52121c0.9649,-0.08575 1.93573,-0.14136 2.9212,-0.14136c18.8302,0 34.1651,15.98865 34.58453,35.84088c3.14581,-1.75696 6.76038,-2.76416 10.61737,-2.76416c12.05353,0 21.84698,9.79346 21.84698,21.84686c0,12.05341 -12.33295,25.26941 -24.38647,25.26941c-102.15582,0.32916 -170.02948,1.34833 -271.83087,0.68439c-13.7056,0 -26.24216,-6.49976 -26.24216,-20.20526c0,-13.70557 11.12564,-24.83124 24.83121,-24.83124c3.57373,0 6.9653,0.75964 10.03616,2.12061c5.56354,-9.21326 15.66229,-15.37604 27.20294,-15.37604c4.5444,0 8.87424,0.96429 12.78415,2.68542c2.17834,-13.98413 14.276,-24.70532 28.8678,-24.70532c11.51953,0 21.48535,6.67413 26.245,16.3656c4.25598,-2.51941 9.11896,-4.13568 14.30829,-4.57037c-0.10974,-1.40881 -0.17303,-2.82043 -0.17303,-4.25671c0,-30.0719 24.41205,-54.48392 54.48395,-54.48392z"/>
   <path fill="#ffffff" fill-rule="nonzero" stroke-miterlimit="4" stroke-dashoffset="0" id="path8751" d="m723.815,842.41003c13.38202,0 24.47198,9.88696 26.35803,22.74896c0.47198,-0.04199 0.94696,-0.06897 1.42798,-0.06897c9.20801,0 16.70697,7.81799 16.91199,17.526c1.53802,-0.86005 3.30603,-1.35199 5.19202,-1.35199c5.89398,0 10.68268,4.789 10.68268,10.68298c0,5.89398 -6.0307,12.35602 -11.92468,12.35602c-49.953,0.16095 -83.14301,0.65997 -132.92297,0.33496c-6.70203,0 -12.83203,-3.17798 -12.83203,-9.88c0,-6.70197 5.44,-12.14197 12.14203,-12.14197c1.74701,0 3.40601,0.37097 4.90796,1.03601c2.72003,-4.505 7.65802,-7.51801 13.302,-7.51801c2.22198,0 4.33899,0.47095 6.25098,1.31299c1.06506,-6.83801 6.98102,-12.08099 14.11603,-12.08099c5.633,0 10.50604,3.26398 12.83398,8.00299c2.08105,-1.23199 4.45905,-2.02203 6.99603,-2.23499c-0.05304,-0.68903 -0.08398,-1.37903 -0.08398,-2.08203c0,-14.70398 11.93695,-26.64197 26.64197,-26.64197z"/>
   <path fill="#ffffff" fill-rule="nonzero" stroke-miterlimit="4" stroke-dashoffset="0" id="path8759" d="m568.94904,1762.35706c12.89801,0 23.58496,9.52795 25.40302,21.92395c0.45496,-0.04102 0.91199,-0.06702 1.37695,-0.06702c8.87396,0 16.10101,7.53503 16.29901,16.89099c1.48199,-0.82898 3.18597,-1.30298 5.00299,-1.30298c5.68097,0 10.29602,4.61499 10.29602,10.29602c0,5.68005 -5.81201,11.90796 -11.49298,11.90796c-48.14203,0.15601 -80.12903,0.63599 -128.10504,0.323c-6.45999,0 -12.367,-3.06299 -12.367,-9.52197c0,-6.45898 5.24301,-11.70203 11.702,-11.70203c1.68402,0 3.28201,0.35803 4.729,0.99902c2.62302,-4.34204 7.38202,-7.24597 12.82001,-7.24597c2.142,0 4.18201,0.45398 6.02499,1.26501c1.02701,-6.59009 6.72797,-11.64307 13.60504,-11.64307c5.42798,0 10.125,3.146 12.36798,7.71301c2.00598,-1.18701 4.29797,-1.94897 6.74298,-2.15405c-0.05103,-0.66394 -0.08099,-1.32898 -0.08099,-2.00598c0,-14.17188 11.50397,-25.6759 25.67603,-25.6759z"/>
   <path fill="#ffffff" fill-rule="nonzero" stroke-miterlimit="4" stroke-dashoffset="0" id="path8761" d="m787.00714,1828.63293c36.24829,0 66.28558,26.78003 71.39429,61.61707c1.27789,-0.11401 2.5639,-0.18701 3.8692,-0.18701c24.94031,0 45.2514,21.17603 45.80707,47.47095c4.16693,-2.32788 8.95404,-3.66089 14.0625,-3.66089c15.96503,0 28.93652,12.97095 28.93652,28.93604c0,15.96484 -16.33514,33.46899 -32.29999,33.46899c-135.30475,0.43591 -225.20276,1.78589 -360.0387,0.90698c-18.15405,0 -34.75806,-8.60913 -34.75806,-26.76196c0,-18.15417 14.73602,-32.88916 32.88904,-32.88916c4.73303,0 9.22498,1.0061 13.29297,2.80811c7.36902,-12.20203 20.74402,-20.36499 36.03003,-20.36499c6.01801,0 11.75403,1.27698 16.93298,3.55688c2.88501,-18.52197 18.90802,-32.72192 38.23505,-32.72192c15.25696,0 28.45697,8.83899 34.76093,21.67603c5.63702,-3.33704 12.07904,-5.47803 18.95105,-6.05396c-0.14502,-1.86511 -0.229,-3.73511 -0.229,-5.63708c0,-39.83093 32.33398,-72.16406 72.16412,-72.16406z"/>
   <path fill="#ffffff" fill-rule="nonzero" stroke-miterlimit="4" stroke-dashoffset="0" id="path8763" d="m844.95313,2003.67603c39.88531,0 72.93616,29.46704 78.55756,67.80005c1.40625,-0.125 2.82111,-0.20605 4.25751,-0.20605c27.44293,0 49.79181,23.30103 50.40344,52.23389c4.58466,-2.56104 9.85236,-4.02881 15.47339,-4.02881c17.56702,0 31.83997,14.27393 31.83997,31.83984c0,17.56714 -17.974,36.82715 -35.54095,36.82715c-148.88074,0.47998 -247.79901,1.96606 -396.16406,0.99805c-19.97491,0 -38.245,-9.47314 -38.245,-29.44727c0,-19.97485 16.21405,-36.18896 36.18903,-36.18896c5.20801,0 10.151,1.10718 14.62598,3.09009c8.10907,-13.427 22.82605,-22.40894 39.64502,-22.40894c6.62305,0 12.93402,1.40601 18.633,3.91406c3.17401,-20.38013 20.80499,-36.00513 42.07104,-36.00513c16.78796,0 31.31299,9.72705 38.24896,23.85107c6.20203,-3.67212 13.29004,-6.0271 20.85199,-6.66113c-0.159,-2.052 -0.25098,-4.10986 -0.25098,-6.20288c0,-43.82703 35.57727,-79.40503 79.40411,-79.40503z"/>
   <path fill="#ffffff" fill-rule="nonzero" stroke-miterlimit="4" stroke-dashoffset="0" id="path8767" d="m918.3678,342.30005c-11.34247,0 -20.74127,8.38 -22.3399,19.27991c-0.39966,-0.03992 -0.80206,-0.05994 -1.21075,-0.05994c-7.80402,0 -14.15948,6.62 -14.33331,14.84998c-1.30389,-0.72998 -2.80188,-1.14001 -4.40039,-1.14001c-4.99554,0 -9.05444,4.06006 -9.05444,9.05005c0,5 5.11133,10.46997 10.10693,10.46997c42.33795,0.14001 70.4682,0.56006 112.65906,0.29004c5.68103,0 10.87604,-2.70007 10.87604,-8.38c0,-5.68005 -4.61102,-10.29004 -10.29102,-10.29004c-1.48102,0 -2.88696,0.32007 -4.159,0.88c-2.30597,-3.81995 -6.49152,-6.37 -11.27448,-6.37c-1.8833,0 -3.67786,0.40002 -5.2984,1.10999c-0.90271,-5.79004 -5.91675,-10.23999 -11.96411,-10.23999c-4.77429,0 -8.90472,2.77002 -10.87714,6.79004c-1.76385,-1.05005 -3.77936,-1.71997 -5.92999,-1.90002c0.04535,-0.57996 0.07159,-1.17004 0.07159,-1.76001c0,-12.46997 -10.11749,-22.57996 -22.58069,-22.57996z"/>
   <path fill="#ffffff" fill-rule="nonzero" stroke-miterlimit="4" stroke-dashoffset="0" id="path8769" d="m902.42792,694.62219c-26.69885,0 -48.82288,19.72522 -52.58569,45.38416c-0.9411,-0.08362 -1.88843,-0.13763 -2.84991,-0.13763c-18.36957,0 -33.32971,15.59784 -33.73975,34.9649c-3.06885,-1.71417 -6.59454,-2.69629 -10.35724,-2.69629c-11.75946,0 -21.31329,9.55383 -21.31329,21.31335c0,11.75867 12.03107,24.65161 23.79053,24.65161c99.65924,0.32062 165.87451,1.31567 265.18799,0.66791c13.37146,0 25.60144,-6.34088 25.60144,-19.71222c0,-13.37061 -10.85376,-24.22437 -24.22437,-24.22437c-3.48596,0 -6.79541,0.74146 -9.79089,2.06879c-5.42786,-8.98822 -15.28015,-15.00055 -26.53809,-15.00055c-4.43347,0 -8.65747,0.94104 -12.47272,2.61993c-2.12421,-13.64227 -13.92694,-24.10187 -28.16223,-24.10187c-11.23773,0 -20.96021,6.51172 -25.60315,15.96606c-4.15173,-2.45782 -8.89655,-4.03436 -13.95837,-4.4588c0.10663,-1.37408 0.1684,-2.75104 0.1684,-4.15253c0,-29.33667 -23.81537,-53.15247 -53.15265,-53.15247z"/>
   <path fill="#ffffff" fill-rule="nonzero" stroke-miterlimit="4" stroke-dashoffset="0" id="path8771" d="m767.76782,1013.53601c-25.28943,0 -46.2453,18.68396 -49.80963,42.98901c-0.89166,-0.07996 -1.7887,-0.13098 -2.69946,-0.13098c-17.40015,0 -31.57074,14.77393 -31.95844,33.1189c-2.90686,-1.6239 -6.24677,-2.55396 -9.81085,-2.55396c-11.13824,0 -20.18744,9.05005 -20.18744,20.18799c0,11.13806 11.39594,23.3501 22.53412,23.3501c94.39801,0.30396 157.11761,1.24695 251.1889,0.63293c12.66504,0 24.24902,-6.00598 24.24902,-18.67102c0,-12.66504 -10.28101,-22.94604 -22.94604,-22.94604c-3.302,0 -6.43604,0.70203 -9.27393,1.96008c-5.14111,-8.51404 -14.47302,-14.20898 -25.13708,-14.20898c-4.19897,0 -8.19995,0.89099 -11.81396,2.48193c-2.01202,-12.922 -13.19104,-22.82996 -26.67505,-22.82996c-10.64435,0 -19.85364,6.16797 -24.25165,15.12292c-3.9325,-2.328 -8.4267,-3.82092 -13.2215,-4.2229c0.10095,-1.30103 0.15955,-2.60608 0.15955,-3.93311c0,-27.78894 -22.55804,-50.34692 -50.34656,-50.34692z"/>
   <path fill="#ffffff" fill-rule="nonzero" stroke-miterlimit="4" stroke-dashoffset="0" id="path8775" d="m1151.56702,1610.28699c-25.31006,0 -46.28198,18.698 -49.849,43.02197c-0.89307,-0.07898 -1.79102,-0.13098 -2.70203,-0.13098c-17.41394,0 -31.59595,14.78699 -31.98401,33.146c-2.90894,-1.625 -6.25195,-2.55591 -9.81897,-2.55591c-11.14697,0 -20.20398,9.05688 -20.20398,20.20398c0,11.14697 11.40601,23.3689 22.55298,23.3689c94.47302,0.30408 157.24304,1.24707 251.38904,0.63306c12.67493,0 24.26892,-6.01099 24.26892,-18.68604c0,-12.67493 -10.28894,-22.96399 -22.96399,-22.96399c-3.30493,0 -6.44202,0.703 -9.28198,1.96106c-5.14502,-8.52002 -14.48401,-14.22009 -25.15698,-14.22009c-4.20203,0 -8.20703,0.89209 -11.823,2.48413c-2.01404,-12.93201 -13.20203,-22.84802 -26.69702,-22.84802c-10.65295,0 -19.87,6.17297 -24.271,15.13501c-3.93604,-2.3291 -8.43396,-3.8241 -13.23206,-4.22607c0.10107,-1.30298 0.16003,-2.60803 0.16003,-3.93701c0,-27.80994 -22.57703,-50.38599 -50.38696,-50.38599z"/>
   <path fill="#ffffff" fill-rule="nonzero" stroke-miterlimit="4" stroke-dashoffset="0" id="path8777" d="m1052.50598,1808.32397c-20.79297,0 -38.02295,15.36206 -40.95398,35.34509c-0.73297,-0.06506 -1.47101,-0.10706 -2.21997,-0.10706c-14.30603,0 -25.95691,12.14697 -26.2757,27.23096c-2.39001,-1.33496 -5.13635,-2.10095 -8.06665,-2.10095c-9.1579,0 -16.59869,7.44104 -16.59869,16.599c0,9.15796 9.37024,19.19897 18.5282,19.19897c77.61487,0.25 129.18286,1.02502 206.52783,0.52002c10.41406,0 19.93799,-4.93799 19.93799,-15.35107c0,-10.41394 -8.453,-18.86597 -18.86597,-18.86597c-2.71497,0 -5.29199,0.57703 -7.625,1.61108c-4.22705,-7 -11.90002,-11.68311 -20.66809,-11.68311c-3.4519,0 -6.74194,0.73303 -9.71301,2.04102c-1.65491,-10.625 -10.84595,-18.771 -21.93298,-18.771c-8.75195,0 -16.32397,5.07104 -19.93994,12.43506c-3.23303,-1.91406 -6.92798,-3.14209 -10.87,-3.47302c0.08301,-1.07007 0.13098,-2.14307 0.13098,-3.23401c0,-22.84802 -18.54797,-41.39502 -41.39502,-41.39502z"/>
   <path fill="#ffffff" fill-rule="nonzero" stroke-miterlimit="4" stroke-dashoffset="0" id="path8779" d="m1214.14307,1968.495c-40.31104,0 -73.71411,29.78101 -79.396,68.52307c-1.42102,-0.1261 -2.85107,-0.20813 -4.3031,-0.20813c-27.73499,0 -50.323,23.55115 -50.94092,52.79211c-4.63403,-2.58789 -9.95801,-4.07104 -15.63904,-4.07104c-17.75403,0 -32.17896,14.42505 -32.17896,32.17896c0,17.75391 18.16492,37.22119 35.91992,37.22119c150.47009,0.48389 250.44507,1.98584 400.39307,1.00781c20.18799,0 38.65393,-9.57397 38.65393,-29.76196c0,-20.18799 -16.38794,-36.57495 -36.57593,-36.57495c-5.26306,0 -10.25903,1.1189 -14.7821,3.12305c-8.19495,-13.57007 -23.06995,-22.64795 -40.06897,-22.64795c-6.69299,0 -13.07092,1.4209 -18.83093,3.95581c-3.20801,-20.5979 -21.0271,-36.38989 -42.52002,-36.38989c-16.96802,0 -31.64697,9.83093 -38.65698,24.10596c-6.26904,-3.71094 -13.43311,-6.09106 -21.07507,-6.73193c0.16003,-2.07495 0.25403,-4.15405 0.25403,-6.27002c0,-44.29407 -35.95801,-80.25208 -80.25293,-80.25208z"/>
   <path fill="#ffffff" fill-rule="nonzero" stroke-miterlimit="4" stroke-dashoffset="0" id="path8781" d="m985.01099,2350.15894c-36.23254,0 -66.25665,26.76807 -71.36316,61.59009c-1.2774,-0.11304 -2.56281,-0.18701 -3.86774,-0.18701c-24.92957,0 -45.23175,21.16797 -45.78729,47.448c-4.16467,-2.32007 -8.94977,-3.65991 -14.05627,-3.65991c-15.95789,0 -28.92358,12.96997 -28.92358,28.92993c0,15.94995 16.3277,33.44995 32.28558,33.44995c135.24548,0.43994 225.10553,1.79004 359.88251,0.91016c18.146,0 34.74304,-8.61011 34.74304,-26.75c0,-18.15015 -14.72913,-32.88013 -32.875,-32.88013c-4.73108,0 -9.22107,1.01001 -13.28711,2.81006c-7.36597,-12.19995 -20.73499,-20.36011 -36.01392,-20.36011c-6.01611,0 -11.74902,1.28003 -16.92603,3.56006c-2.88403,-18.51514 -18.90002,-32.70898 -38.21899,-32.70898c-15.25,0 -28.44507,8.83594 -34.745,21.66895c-5.63501,-3.33789 -12.07397,-5.47705 -18.94299,-6.05298c0.14392,-1.86499 0.22803,-3.73413 0.22803,-5.63501c0,-39.81299 -32.31909,-72.13306 -72.13208,-72.13306z"/>
   <path fill="#ffffff" fill-rule="nonzero" stroke-miterlimit="4" stroke-dashoffset="0" id="path8783" d="m1214.90698,237.68005c12.94507,0 23.67102,9.55994 25.49609,22c0.45593,-0.04004 0.91492,-0.06006 1.38196,-0.06006c8.90601,0 16.16003,7.56006 16.35803,16.95007c1.48792,-0.83008 3.19788,-1.31006 5.02197,-1.31006c5.70093,0 10.33398,4.63 10.33398,10.32996c0,5.71008 -5.83398,11.96008 -11.53503,11.96008c-48.31995,0.1499 -80.42395,0.64001 -128.57495,0.31995c-6.48401,0 -12.41296,-3.06995 -12.41296,-9.55994c0,-6.4801 5.26196,-11.73999 11.74487,-11.73999c1.69006,0 3.29504,0.35999 4.74707,1c2.63196,-4.36011 7.40796,-7.27002 12.86694,-7.27002c2.14905,0 4.198,0.45996 6.047,1.27002c1.03003,-6.62012 6.75208,-11.69006 13.65405,-11.69006c5.44897,0 10.16296,3.16003 12.41406,7.73999c2.01294,-1.18994 4.31396,-1.94995 6.76794,-2.16003c-0.052,-0.65991 -0.08203,-1.32996 -0.08203,-2.01001c0,-14.21997 11.547,-25.7699 25.771,-25.7699z"/>
   <path fill="#ffffff" fill-rule="nonzero" stroke-miterlimit="4" stroke-dashoffset="0" id="path8785" d="m1193.64819,441.94016c30.91626,0 56.53491,22.84259 60.89185,52.55203c1.09033,-0.09372 2.18665,-0.15393 3.30029,-0.15393c21.27112,0 38.59485,18.05725 39.06873,40.4848c3.55383,-1.98102 7.63647,-3.11884 11.99414,-3.11884c13.61584,0 24.67981,11.06055 24.67981,24.67645c0,13.61652 -13.9325,28.5462 -27.54895,28.5462c-115.401,0.3714 -192.0752,1.52325 -307.07654,0.77301c-15.48315,0 -29.64453,-7.34204 -29.64453,-22.8252c0,-15.48322 12.56787,-28.05164 28.0509,-28.05164c4.0365,0 7.86804,0.85669 11.33704,2.39606c6.28528,-10.40735 17.69312,-17.36786 30.72998,-17.36786c5.13342,0 10.02527,1.09094 14.4425,3.0318c2.46021,-15.79504 16.12708,-27.90903 32.61084,-27.90903c13.01282,0 24.27075,7.54282 29.64709,18.48557c4.80811,-2.84445 10.30225,-4.67157 16.16382,-5.16013c-0.12378,-1.5929 -0.19543,-3.18579 -0.19543,-4.80548c0,-33.97275 27.57715,-61.55383 61.54846,-61.55383z"/>
   <path fill="#ffffff" fill-rule="nonzero" stroke-miterlimit="4" stroke-dashoffset="0" id="path8787" d="m1422.53101,593.60144c22.89966,0 41.87598,16.9184 45.10339,38.92651c0.80737,-0.07184 1.61963,-0.11823 2.44482,-0.11823c15.75574,0 28.58752,13.37891 28.93848,29.99023c2.63245,-1.4704 5.65686,-2.31293 8.88428,-2.31293c10.08582,0 18.28101,8.19513 18.28101,18.28101c0,10.08594 -10.31995,21.14447 -20.40576,21.14447c-85.47986,0.2749 -142.27393,1.12805 -227.45728,0.57269c-11.46826,0 -21.95789,-5.4389 -21.95789,-16.90729c0,-11.46838 9.30896,-20.77795 20.77722,-20.77795c2.99036,0 5.82837,0.63586 8.39832,1.77441c4.65576,-7.70917 13.10535,-12.86572 22.76221,-12.86572c3.80188,0 7.42554,0.8067 10.69751,2.24677c1.82275,-11.70117 11.94519,-20.67212 24.15515,-20.67212c9.63892,0 17.97778,5.58435 21.96057,13.69409c3.56104,-2.10803 7.63049,-3.46021 11.97229,-3.82483c-0.09167,-1.17822 -0.14429,-2.35944 -0.14429,-3.56116c0,-25.16309 20.427,-45.58997 45.58997,-45.58997z"/>
   <path fill="#ffffff" fill-rule="nonzero" stroke-miterlimit="4" stroke-dashoffset="0" id="path8789" d="m1187.27686,849.83374c26.94397,0 49.27039,19.90533 53.06787,45.80029c0.94995,-0.08459 1.90564,-0.13928 2.87598,-0.13928c18.53845,0 33.63574,15.74115 34.04919,35.28552c3.0968,-1.72998 6.65527,-2.7207 10.45276,-2.7207c11.86694,0 21.5083,9.6413 21.5083,21.50842c0,11.86627 -12.14197,24.87793 -24.00891,24.87793c-100.57263,0.32373 -167.39502,1.32758 -267.61987,0.67365c-13.49353,0 -25.83514,-6.39862 -25.83514,-19.89215c0,-13.49353 10.95288,-24.44714 24.44641,-24.44714c3.51752,0 6.85718,0.74799 9.88043,2.08795c5.47778,-9.07056 15.41956,-15.13824 26.78137,-15.13824c4.474,0 8.73669,0.94995 12.58667,2.64423c2.14404,-13.76764 14.05493,-24.32245 28.42029,-24.32245c11.3407,0 21.15271,6.57068 25.83813,16.11212c4.19043,-2.4801 8.97791,-4.07153 14.08691,-4.50024c-0.10779,-1.38586 -0.17053,-2.77612 -0.17053,-4.1897c0,-29.60638 24.03369,-53.6402 53.64014,-53.6402z"/>
   <path fill="#ffffff" fill-rule="nonzero" stroke-miterlimit="4" stroke-dashoffset="0" id="path8791" d="m1411.62708,1032.89197c28.97192,0 52.97888,21.40405 57.06189,49.24707c1.021,-0.09106 2.04907,-0.15002 3.09302,-0.15002c19.93311,0 36.16711,16.92603 36.61108,37.94202c3.32996,-1.85999 7.15601,-2.92603 11.23901,-2.92603c12.76001,0 23.12695,10.36707 23.12695,23.12708c0,12.75989 -13.05505,26.74988 -25.81494,26.74988c-108.14209,0.34802 -179.99304,1.4281 -287.76111,0.724c-14.50891,0 -27.77893,-6.88 -27.77893,-21.38892c0,-14.50903 11.77698,-26.28601 26.28601,-26.28601c3.78296,0 7.37292,0.80396 10.6239,2.24402c5.89001,-9.75305 16.58008,-16.2771 28.797,-16.2771c4.81104,0 9.39502,1.02112 13.53406,2.84302c2.30603,-14.80298 15.11206,-26.15295 30.55896,-26.15295c12.19507,0 22.745,7.06506 27.78296,17.32507c4.505,-2.66711 9.65405,-4.37805 15.14612,-4.83911c-0.11499,-1.48999 -0.18213,-2.98499 -0.18213,-4.505c0,-31.83496 25.84204,-57.677 57.67615,-57.677z"/>
   <path fill="#ffffff" fill-rule="nonzero" stroke-miterlimit="4" stroke-dashoffset="0" id="path8793" d="m488.05371,890.57935c19.3855,0 35.44971,14.3219 38.18164,32.95288c0.68359,-0.06079 1.37134,-0.10022 2.06934,-0.10022c13.33813,0 24.20032,11.32544 24.4978,25.3877c2.22827,-1.24475 4.78833,-1.95801 7.52026,-1.95801c8.53833,0 15.47522,6.93726 15.47522,15.4751c0,8.53796 -8.7356,17.89941 -17.27393,17.89941c-72.36072,0.23315 -120.43848,0.9552 -192.54871,0.48474c-9.70874,0 -18.58838,-4.604 -18.58838,-14.31226c0,-9.7085 7.88062,-17.58899 17.58887,-17.58899c2.53113,0 4.93384,0.53796 7.10925,1.50195c3.9408,-6.526 11.09387,-10.8916 19.26843,-10.8916c3.21887,0 6.28613,0.68323 9.05603,1.90247c1.5426,-9.90552 10.1123,-17.5 20.44836,-17.5c8.15967,0 15.21863,4.72754 18.58984,11.59253c3.01453,-1.78455 6.45959,-2.9292 10.13525,-3.23743c-0.07727,-0.99756 -0.12256,-1.99768 -0.12256,-3.01501c0,-21.30115 17.29236,-38.59326 38.59326,-38.59326z"/>
   <path fill="#ffffff" fill-rule="nonzero" stroke-miterlimit="4" stroke-dashoffset="0" id="path8795" d="m1466.93408,1669.11304c17.29688,0 31.62988,12.77893 34.06787,29.40295c0.60999,-0.05396 1.224,-0.08899 1.84705,-0.08899c11.901,0 21.59302,10.10498 21.85803,22.65308c1.98889,-1.11108 4.27295,-1.74805 6.71094,-1.74805c7.61804,0 13.80798,6.18994 13.80798,13.80896c0,7.61804 -7.79492,15.97107 -15.41296,15.97107c-64.56592,0.20801 -107.46497,0.85193 -171.80701,0.43201c-8.66296,0 -16.58594,-4.10803 -16.58594,-12.77002c0,-8.66309 7.03101,-15.69397 15.69397,-15.69397c2.25806,0 4.40198,0.47986 6.34302,1.33997c3.51697,-5.823 9.89905,-9.71899 17.19299,-9.71899c2.87195,0 5.60901,0.60999 8.07996,1.698c1.37708,-8.83911 9.02295,-15.61511 18.24609,-15.61511c7.28101,0 13.57996,4.21802 16.58789,10.34412c2.68896,-1.59302 5.76306,-2.61401 9.04297,-2.88904c-0.06885,-0.89001 -0.10889,-1.78198 -0.10889,-2.68994c0,-19.00708 15.42896,-34.43604 34.43604,-34.43604z"/>
   <path fill="#ffffff" fill-rule="nonzero" stroke-miterlimit="4" stroke-dashoffset="0" id="path8797" d="m1452.73999,2162.46289c38.96497,0 71.25293,28.78711 76.74402,66.23511c1.37402,-0.12305 2.75598,-0.2019 4.15906,-0.2019c26.80994,0 48.64294,22.76392 49.23987,51.02881c4.47913,-2.50195 9.62512,-3.93604 15.11707,-3.93604c17.16101,0 31.104,13.94409 31.104,31.10522c0,17.16089 -17.55908,35.97681 -34.71997,35.97681c-145.44397,0.46924 -242.07898,1.92017 -387.01904,0.9751c-19.51392,0 -37.36304,-9.25391 -37.36304,-28.76807c0,-19.51294 15.84009,-35.35303 35.35413,-35.35303c5.08691,0 9.91699,1.08105 14.28894,3.01904c7.92102,-13.11694 22.29895,-21.89185 38.72998,-21.89185c6.46997,0 12.63501,1.3728 18.20203,3.82397c3.10095,-19.91016 20.32495,-35.17505 41.09998,-35.17505c16.401,0 30.58997,9.50293 37.36597,23.30103c6.05908,-3.58691 12.98401,-5.88818 20.37109,-6.50708c-0.15503,-2.00488 -0.24609,-4.01587 -0.24609,-6.05981c0,-42.81519 34.75708,-77.57227 77.57202,-77.57227z"/>
   <path fill="#ffffff" fill-rule="nonzero" stroke-miterlimit="4" stroke-dashoffset="0" id="path8799" d="m1654.46802,2350.15894c23.58801,0 43.13403,17.427 46.45898,40.09692c0.83105,-0.07373 1.66809,-0.12183 2.51807,-0.12183c16.229,0 29.4469,13.78101 29.80786,30.89087c2.71216,-1.51392 5.82715,-2.38184 9.15112,-2.38184c10.38892,0 18.82996,8.44092 18.82996,18.8269c0,10.38989 -10.63,21.78003 -21.01794,21.78003c-88.0481,0.29004 -146.54907,1.15991 -234.29199,0.58984c-11.81311,0 -22.61804,-5.59985 -22.61804,-17.40991c0,-11.81592 9.58899,-21.40503 21.40198,-21.40503c3.08008,0 6.00293,0.65503 8.65002,1.82813c4.79602,-7.94116 13.5,-13.25293 23.44604,-13.25293c3.91687,0 7.64893,0.83105 11.0199,2.31494c1.87695,-12.05298 12.30396,-21.29395 24.88098,-21.29395c9.92798,0 18.51807,5.75293 22.62012,14.10596c3.66785,-2.17114 7.85999,-3.56396 12.33191,-3.94019c-0.09399,-1.21289 -0.14893,-2.42993 -0.14893,-3.66772c0,-25.91919 21.04102,-46.96021 46.95996,-46.96021z"/>
   <path fill="#ffffff" fill-rule="nonzero" stroke-miterlimit="4" stroke-dashoffset="0" id="path8801" d="m148.24113,97.70235c-27.30313,0 -49.92858,20.16562 -53.77657,46.40796c-0.96223,-0.0851 -1.93079,-0.14178 -2.91422,-0.14178c-18.78594,0 -34.08457,15.95386 -34.50367,35.75786c-3.13823,-1.75136 -6.74386,-2.75818 -10.59185,-2.75818c-12.02502,0 -21.79589,9.77078 -21.79589,21.79651c0,12.02563 12.30434,25.20703 24.32928,25.20703c101.91536,0.33331 169.62992,1.34723 271.19214,0.68787c13.67346,0 26.1806,-6.48792 26.1806,-20.15863c0,-13.6778 -11.09958,-24.7746 -24.77304,-24.7746c-3.56522,0 -6.94891,0.75874 -10.01273,2.11307c-5.55051,-9.18948 -15.62485,-15.33698 -27.13852,-15.33698c-4.53375,0 -8.85336,0.96431 -12.75458,2.68018c-2.17255,-13.95425 -14.24222,-24.64685 -28.79987,-24.64685c-11.49245,0 -21.43497,6.658 -26.18277,16.32249c-4.24588,-2.51001 -9.09799,-4.1196 -14.27486,-4.5592c0.10924,-1.40393 0.17233,-2.80794 0.17233,-4.24017c0,-30.00746 -24.35481,-54.35657 -54.3558,-54.35657z"/>
   <path fill="#ffffff" fill-rule="nonzero" stroke-miterlimit="4" stroke-dashoffset="0" id="path8803" d="m1305.35803,72.49444c-24.51794,0 -44.83508,18.11125 -48.29053,41.67536c-0.86462,-0.07683 -1.73438,-0.12706 -2.61719,-0.12706c-16.86914,0 -30.60779,14.32414 -30.98352,32.10922c-2.81799,-1.57419 -6.05615,-2.47652 -9.51184,-2.47652c-10.79822,0 -19.5719,8.77435 -19.5719,19.57257c0,10.7982 11.04883,22.63815 21.84692,22.63815c91.51929,0.29488 152.32471,1.20839 243.5249,0.61337c12.27917,0 23.51221,-5.82278 23.51221,-18.10181c0,-12.27841 -9.96863,-22.24577 -22.24756,-22.24577c-3.1969,0 -6.23987,0.68071 -8.98767,1.89973c-4.98743,-8.25377 -14.03394,-13.77519 -24.36902,-13.77519c-4.07129,0 -7.95361,0.86394 -11.45764,2.40619c-1.94995,-12.52838 -12.78723,-22.13294 -25.85803,-22.13294c-10.323,0 -19.25171,5.97877 -23.5144,14.66155c-3.81311,-2.25726 -8.1698,-3.70499 -12.81848,-4.09498c0.09802,-1.26158 0.15479,-2.52612 0.15479,-3.81311c0,-26.94057 -21.87,-48.80878 -48.81104,-48.80878z"/>
   <path fill="#ffffff" fill-rule="nonzero" stroke-miterlimit="4" stroke-dashoffset="0" id="path8807" d="m1426.92664,835.89233c-10.15552,0 -18.57092,7.50293 -20.0022,17.26318c-0.35815,-0.03198 -0.71826,-0.05261 -1.08423,-0.05261c-6.9873,0 -12.67773,5.93311 -12.83337,13.29993c-1.16748,-0.6521 -2.50867,-1.02576 -3.93994,-1.02576c-4.47266,0 -8.10681,3.63416 -8.10681,8.10706c0,4.47266 4.57642,9.37683 9.04932,9.37683c37.90771,0.12207 63.09424,0.50037 100.87048,0.25391c5.08655,0 9.73706,-2.41174 9.73706,-7.4978c0,-5.08582 -4.12659,-9.21423 -9.21313,-9.21423c-1.32654,0 -2.58594,0.28186 -3.724,0.78687c-2.06458,-3.41882 -5.81177,-5.70593 -10.09583,-5.70593c-1.68518,0 -3.29297,0.35791 -4.74329,0.9967c-0.80786,-5.18909 -5.29822,-9.16772 -10.71265,-9.16772c-4.27368,0 -7.9718,2.47668 -9.73804,6.07288c-1.57947,-0.93469 -3.38416,-1.53442 -5.30957,-1.6958c0.04053,-0.52258 0.06421,-1.04639 0.06421,-1.57959c0,-11.15906 -9.05884,-20.2179 -20.21802,-20.2179z"/>
   <path fill="#ffffff" fill-rule="nonzero" stroke-miterlimit="4" stroke-dashoffset="0" id="path8809" d="m1428.8175,392.25256c-7.85803,0 -14.36951,5.8053 -15.47717,13.35767c-0.27673,-0.02454 -0.55566,-0.04065 -0.83862,-0.04065c-5.40674,0 -9.80981,4.59094 -9.9303,10.29126c-0.9032,-0.50476 -1.94104,-0.79395 -3.04871,-0.79395c-3.46069,0 -6.27271,2.81201 -6.27271,6.27307c0,3.46094 3.54114,7.25549 7.00195,7.25562c29.33203,0.09448 48.82092,0.38708 78.05103,0.19653c3.9353,0 7.53503,-1.86633 7.53503,-5.80164c0,-3.93555 -3.19458,-7.12964 -7.12988,-7.12964c-1.02612,0 -2,0.2179 -2.88184,0.60864c-1.59717,-2.64539 -4.49683,-4.41504 -7.81079,-4.41504c-1.30457,0 -2.54773,0.27722 -3.67078,0.77124c-0.62512,-4.01538 -4.09888,-7.09351 -8.28882,-7.09351c-3.30737,0 -6.16907,1.91614 -7.53528,4.69897c-1.22229,-0.72339 -2.61865,-1.18738 -4.10852,-1.3125c0.03149,-0.40417 0.04956,-0.80969 0.04956,-1.22192c0,-8.63477 -7.0094,-15.64417 -15.64417,-15.64417z"/>
   <path fill="#ffffff" fill-rule="nonzero" stroke-miterlimit="4" stroke-dashoffset="0" id="path8811" d="m1769.3761,1365.0553c-47.58411,0 -87.01514,35.15466 -93.72107,80.88623c-1.67798,-0.14917 -3.36597,-0.24585 -5.0791,-0.24585c-32.73999,0 -59.40283,27.79956 -60.13184,62.31677c-5.47009,-3.0553 -11.75403,-4.80615 -18.46106,-4.80615c-20.95703,0 -37.98499,17.02795 -37.98499,37.98572c0,20.95703 21.44287,43.93494 42.40088,43.93494c177.61804,0.57202 295.62817,2.34509 472.62817,1.19006c23.82983,0 45.62988,-11.30005 45.62988,-35.13098c0,-23.83008 -19.34009,-43.17358 -43.16992,-43.17358c-6.21997,0 -12.11011,1.32043 -17.44995,3.68652c-9.68005,-16.0188 -27.22998,-26.73438 -47.30017,-26.73438c-7.90002,0 -15.42981,1.67688 -22.22986,4.66956c-3.79016,-24.31396 -24.82019,-42.95532 -50.19006,-42.95532c-20.03003,0 -37.35999,11.60425 -45.63,28.45483c-7.40198,-4.38 -15.85901,-7.18994 -24.88,-7.94653c0.19006,-2.44861 0.30005,-4.90344 0.30005,-7.40051c0,-52.28625 -42.44507,-94.73132 -94.73096,-94.73132z"/>
   <path fill="#ffffff" fill-rule="nonzero" stroke-miterlimit="4" stroke-dashoffset="0" id="path8815" d="m1571.28003,1802.26794c-34.35596,0 -62.82397,25.38208 -67.66602,58.40002c-1.21094,-0.10803 -2.43005,-0.17798 -3.66699,-0.17798c-23.63794,0 -42.88904,20.07104 -43.41504,44.99304c-3.94995,-2.20605 -8.48694,-3.47009 -13.32898,-3.47009c-15.13098,0 -27.42493,12.29407 -27.42493,27.42505c0,15.13098 15.48193,31.72205 30.61292,31.72205c128.23901,0.41296 213.44409,1.69202 341.23804,0.85901c17.20605,0 32.94299,-8.16003 32.94299,-25.36499c0,-17.20508 -13.96606,-31.17102 -31.172,-31.17102c-4.48499,0 -8.74304,0.953 -12.59802,2.66199c-6.98499,-11.56604 -19.66101,-19.30298 -34.14893,-19.30298c-5.70398,0 -11.14014,1.21094 -16.04907,3.37195c-2.73401,-17.55505 -17.92102,-31.01404 -36.23792,-31.01404c-14.46106,0 -26.97205,8.37805 -32.94617,20.54407c-5.3429,-3.16199 -11.448,-5.19104 -17.96094,-5.73694c0.13696,-1.76807 0.21606,-3.54004 0.21606,-5.34302c0,-37.75098 -30.64502,-68.39612 -68.39502,-68.39612z"/>
   <path fill="#ffffff" fill-rule="nonzero" stroke-miterlimit="4" stroke-dashoffset="0" id="path8817" d="m1855.349,2057.71094c-26.34094,0 -48.16895,19.46021 -51.88196,44.77612c-0.92798,-0.08203 -1.86304,-0.13599 -2.81201,-0.13599c-18.12402,0 -32.88306,15.38892 -33.28711,34.49707c-3.02783,-1.69116 -6.50684,-2.66016 -10.21997,-2.66016c-11.60095,0 -21.02686,9.42603 -21.02686,21.0271c0,11.60205 11.86987,24.32178 23.47192,24.32178c98.32507,0.31714 163.65405,1.2981 261.63403,0.65918c13.19995,0 25.26001,-6.2561 25.26001,-19.448c0,-13.19092 -10.71008,-23.8999 -23.90015,-23.8999c-3.43994,0 -6.69995,0.73096 -9.65979,2.04077c-5.35022,-8.86792 -15.07019,-14.7998 -26.18005,-14.7998c-4.37012,0 -8.54004,0.92896 -12.31006,2.58594c-2.09009,-13.45996 -13.73999,-23.78003 -27.77991,-23.78003c-11.09021,0 -20.68005,6.42407 -25.26001,15.75195c-4.09998,-2.42383 -8.78003,-3.97998 -13.77002,-4.39893c0.09985,-1.35498 0.16003,-2.71411 0.16003,-4.09595c0,-28.94507 -23.49011,-52.44116 -52.43811,-52.44116z"/>
   <path fill="#ffffff" fill-rule="nonzero" stroke-miterlimit="4" stroke-dashoffset="0" id="path8819" d="m1805.96606,2466.22998c-35.62402,0 -65.14307,26.32007 -70.16406,60.56006c-1.25598,-0.10986 -2.52002,-0.19019 -3.80298,-0.19019c-24.51001,0 -44.47095,20.82007 -45.01807,46.66016c-4.09399,-2.29004 -8.79895,-3.59985 -13.81995,-3.59985c-15.69006,0 -28.43701,12.74976 -28.43701,28.43994c0,15.68994 16.05298,32.88989 31.74304,32.88989c132.9729,0.42993 221.31995,1.75 353.84009,0.88989c17.83984,0 34.1499,-8.45996 34.1499,-26.2998c0,-17.84009 -14.47998,-32.32007 -32.32007,-32.32007c-4.6499,0 -9.06006,0.98999 -13.06006,2.76001c-7.23999,-12 -20.39001,-20.02002 -35.40991,-20.02002c-5.91992,0 -11.55005,1.26001 -16.63989,3.5c-2.84021,-18.19995 -18.59009,-32.15991 -37.5802,-32.15991c-14.98987,0 -27.96985,8.68994 -34.15991,21.30005c-5.53992,-3.28003 -11.87097,-5.38013 -18.625,-5.94995c0.14209,-1.83032 0.22498,-3.67017 0.22498,-5.54028c0,-39.13989 -31.77698,-70.91992 -70.9209,-70.91992z"/>
   <path id="path8757" fill="#ffffff" fill-rule="nonzero" stroke-miterlimit="4" stroke-dashoffset="0" d="m432.47076,84.72229c9.13611,0 16.70667,6.74963 17.99432,15.53003c0.32208,-0.02856 0.64618,-0.04712 0.97522,-0.04712c6.28595,0 11.40521,5.33728 11.54529,11.96472c1.05011,-0.58667 2.25665,-0.92297 3.54431,-0.92297c4.02393,0 7.29309,3.26953 7.29309,7.29321c0,4.02393 -4.117,8.43579 -8.14075,8.43579c-34.10248,0.10962 -56.76074,0.45007 -90.74475,0.22827c-4.57544,0 -8.7605,-2.16968 -8.7605,-6.74512c0,-4.5752 3.71405,-8.28918 8.28949,-8.28918c1.19281,0 2.3252,0.25354 3.35028,0.70776c1.85724,-3.07556 5.22852,-5.13293 9.08105,-5.13293c1.51685,0 2.96259,0.32178 4.26794,0.89636c0.72699,-4.66797 4.7655,-8.24731 9.6366,-8.24731c3.84558,0 7.17255,2.22815 8.76135,5.46338c1.42072,-0.84094 3.04419,-1.38062 4.77649,-1.52588c-0.03644,-0.47009 -0.0578,-0.94128 -0.0578,-1.4209c0,-10.0387 8.14948,-18.18811 18.18835,-18.18811z"/>
   <path id="path8813" transform="translate(-839.323 -1562.43)" fill="#ffffff" fill-rule="nonzero" stroke-miterlimit="4" stroke-dashoffset="0" d="m1850.33679,1642.02441c-6.58301,0 -12.03809,4.86353 -12.9657,11.19055c-0.23242,-0.02087 -0.46558,-0.03406 -0.70276,-0.03406c-4.52942,0 -8.21851,3.84607 -8.31897,8.62146c-0.75708,-0.42273 -1.62622,-0.66479 -2.55432,-0.66479c-2.89917,0 -5.255,2.35547 -5.255,5.255c0,2.89929 2.96655,6.07861 5.86621,6.07861c24.57251,0.07886 40.89954,0.32422 65.38721,0.16467c3.29712,0 6.3125,-1.5636 6.3125,-4.86035c0,-3.29712 -2.6759,-5.97314 -5.97314,-5.97314c-0.8595,0 -1.67542,0.18274 -2.41394,0.51013c-1.33838,-2.21643 -3.76758,-3.69861 -6.54333,-3.69861c-1.09314,0 -2.13501,0.23193 -3.07556,0.64587c-0.52368,-3.36365 -3.43372,-5.94312 -6.94373,-5.94312c-2.77087,0 -5.16846,1.60583 -6.31335,3.93713c-1.02344,-0.60632 -2.19348,-0.995 -3.44177,-1.09961c0.02649,-0.33862 0.04175,-0.67847 0.04175,-1.0238c0,-7.23376 -5.87219,-13.10596 -13.10608,-13.10596z"/>
   <path id="svg_4" transform="translate(-1091.32 -944.425)" fill="#ffffff" fill-rule="nonzero" stroke-miterlimit="4" stroke-dashoffset="0" d="m1720.33679,1632.02441c-6.58301,0 -12.03809,4.86353 -12.9657,11.19055c-0.23242,-0.02087 -0.46558,-0.03406 -0.70276,-0.03406c-4.52942,0 -8.21851,3.84607 -8.31897,8.62146c-0.75708,-0.42273 -1.62622,-0.66479 -2.55432,-0.66479c-2.89917,0 -5.255,2.35547 -5.255,5.255c0,2.89929 2.96655,6.07861 5.86621,6.07861c24.57251,0.07886 40.89954,0.32422 65.38721,0.16467c3.29712,0 6.3125,-1.5636 6.3125,-4.86035c0,-3.29712 -2.6759,-5.97314 -5.97314,-5.97314c-0.8595,0 -1.67542,0.18274 -2.41394,0.51013c-1.33838,-2.21643 -3.76758,-3.69861 -6.54333,-3.69861c-1.09314,0 -2.13501,0.23193 -3.07556,0.64587c-0.52368,-3.36365 -3.43372,-5.94312 -6.94373,-5.94312c-2.77087,0 -5.16846,1.60583 -6.31335,3.93713c-1.02344,-0.60632 -2.19348,-0.995 -3.44177,-1.09961c0.02649,-0.33862 0.04175,-0.67847 0.04175,-1.0238c0,-7.23376 -5.87219,-13.10596 -13.10608,-13.10596z"/>
   <path id="svg_5" transform="translate(-1091.32 -944.425)" fill="#ffffff" fill-rule="nonzero" stroke-miterlimit="4" stroke-dashoffset="0" d="m1214.33679,1604.02441c-6.58301,0 -12.03809,4.86353 -12.9657,11.19055c-0.23242,-0.02087 -0.46558,-0.03406 -0.70276,-0.03406c-4.52942,0 -8.21851,3.84607 -8.31897,8.62146c-0.75708,-0.42273 -1.62622,-0.66479 -2.55432,-0.66479c-2.89917,0 -5.255,2.35547 -5.255,5.255c0,2.89929 2.96655,6.07861 5.86621,6.07861c24.57251,0.07886 40.89954,0.32422 65.38721,0.16467c3.29712,0 6.3125,-1.5636 6.3125,-4.86035c0,-3.29712 -2.6759,-5.97314 -5.97314,-5.97314c-0.8595,0 -1.67542,0.18274 -2.41394,0.51013c-1.33838,-2.21643 -3.76758,-3.69861 -6.54333,-3.69861c-1.09314,0 -2.13501,0.23193 -3.07556,0.64587c-0.52368,-3.36365 -3.43372,-5.94312 -6.94373,-5.94312c-2.77087,0 -5.16846,1.60583 -6.31335,3.93713c-1.02344,-0.60632 -2.19348,-0.995 -3.44177,-1.09961c0.02649,-0.33862 0.04175,-0.67847 0.04175,-1.0238c0,-7.23376 -5.87219,-13.10596 -13.10608,-13.10596z"/>
  </g>
 </g>
</svg>